<?xml version="1.0" encoding="UTF-8"?>
<!-- Generator: Adobe Illustrator 25.0.1, SVG Export Plug-In . SVG Version: 6.00 Build 0) -->
<svg xmlns="http://www.w3.org/2000/svg" xmlns:xlink="http://www.w3.org/1999/xlink" version="1.1" id="Layer_1" x="0px" y="0px" viewBox="0 0 294.49 89.51" style="enable-background:new 0 0 294.49 89.51;" xml:space="preserve"> <style type="text/css"> .st0{fill:#FF671D;} .st1{fill:url(#XMLID_2_);} </style> <g id="XMLID_115_"> <g id="XMLID_2621_"> <g id="XMLID_2624_"> <path id="XMLID_2635_" class="st0" d="M79.65,4.29c-1.8-0.93-3.84-1.46-6.01-1.46h-10.7L51.46,30.75L79.65,4.29z"/> <path id="XMLID_2634_" class="st0" d="M2.41,48.98v15.83l4.64-3.96c4.55-3.59,12.36-9.08,23.03-14.2l1.38-0.85L2.41,48.98z"/> <path id="XMLID_2633_" class="st0" d="M86.79,18.72v-2.74c0-5.02-2.81-9.38-6.95-11.6L54.42,33.61L86.79,18.72z"/> <path id="XMLID_2632_" class="st0" d="M33.12,33.97L7.09,5.93c-2.86,2.41-4.68,6.02-4.68,10.06v5.1L33.12,33.97z"/> <polygon id="XMLID_2631_" class="st0" points="2.41,35.85 2.41,48.63 30.74,41.75 "/> <path id="XMLID_2630_" class="st0" d="M23.29,2.82h-7.73c-3.17,0-6.07,1.12-8.34,2.98l28.76,25.2L23.29,2.82z"/> <polygon id="XMLID_2629_" class="st0" points="49,2.82 37.47,2.82 43.68,28.37 "/> <polygon id="XMLID_2628_" class="st0" points="36.75,2.82 23.43,2.82 39.62,29.08 "/> <polygon id="XMLID_2627_" class="st0" points="62.69,2.82 49.74,2.82 47.76,28.94 "/> <path id="XMLID_2626_" class="st0" d="M56.89,37.19c5.47-1.29,11.29-2.29,17.47-2.88c7.06-0.67,12.44-6.64,12.44-13.73v-1.75 L56.35,37.25L56.89,37.19z"/> <polygon id="XMLID_2625_" class="st0" points="2.41,21.35 2.41,35.47 31.31,37.67 "/> </g> <g id="XMLID_2622_"> <linearGradient id="XMLID_2_" gradientUnits="userSpaceOnUse" x1="2.4059" y1="64.8072" x2="86.7945" y2="64.8072"> <stop offset="0" style="stop-color:#08529C"/> <stop offset="0.866" style="stop-color:#26265E"/> </linearGradient> <path id="XMLID_2623_" class="st1" d="M69.64,42.5C33.76,46.23,14.37,58.78,6.56,65.23c-2.63,2.18-4.16,5.41-4.16,8.82l0,0 c0,7.27,5.89,13.16,13.16,13.16h58.07c7.27,0,13.16-5.89,13.16-13.16V57.88C86.79,48.39,79.08,41.51,69.64,42.5z"/> </g> </g> <g id="XMLID_2541_"> <path id="XMLID_2618_" d="M120.71,2.83c-8.42,0.07-11.07,0-14.02,0c-2.81,0-4.47,0-9.61,0v0.72h1.16c2.03,0,3.03,0,4.79,0 c0.64,0,0.86,0.51,0.86,1.02v43.57c0,0.51-0.21,1.05-0.84,1.05c-2,0-4.07-0.01-5.76-0.01h-0.21v0.77c2.71,0,16.53,0,20.41,0 c15.22,0,26.38-8.64,26.38-26.15C143.87,8.56,133.55,2.75,120.71,2.83z M117.5,49.2c-2.83,0-4.9,0-7.01,0 c-0.77,0-0.98-0.44-0.98-1.09V5.15c0-0.8,0.35-1.6,1.05-1.6c2.18,0,4.79,0,7.67,0c12.63,0,19.48,7.77,19.48,21.21 C137.7,41.39,127.95,49.2,117.5,49.2z"/> <path id="XMLID_2615_" d="M183.82,49.2c-0.64,0-1.15-0.5-1.44-1.13L163.34,2.83h-0.27L150.61,32.7 c-2.88,6.66-4.84,11.29-6.73,15.36c-0.35,0.7-0.68,1.13-1.32,1.13c-1.78,0-3.03-0.01-4.71-0.01l-0.14,0v0.77 c5.55,0,8.57,0,13.54,0v-0.77l-0.14,0c-1.68,0-3.08,0.01-4.8,0.01c-0.64,0-0.88-0.36-0.74-0.85c0.7-2.32,2.24-6.17,3.65-9.47 l2.46-5.89c3.86-0.07,6.38-0.07,9.4-0.07c3.16,0,5.19,0,8.84,0.07l6.24,15.29c0.14,0.42-0.02,0.92-0.65,0.92 c-1.82,0-3.41,0-4.75-0.01l-0.14,0v0.77c3.2,0,14.34,0,18.31,0v-0.77l-0.14,0C187.09,49.19,185.49,49.2,183.82,49.2z M161.06,32 c-2.1,0-5.47,0-9.05-0.07l8.63-20.76h0.21l8.63,20.76C166.89,32,164.08,32,161.06,32z"/> <path id="XMLID_2612_" d="M284.4,2.83c-1.96,0-4.41,0-7.37,0v0.58l0,0.14c1.68,0,3.88,0,5.68,0c0.64,0,1.12,0.51,1.12,1.02 c0,5.98,0,8.57,0,16.25v19.73h-0.21L253.88,2.83h-2.88c-1.29,0-2.81,0-4.35,0c-3.03,0-4.14,0-7.16,0c-3.02,0-4.61,0-7.58,0v0.56 l0,0.17c2.14,0,3.93,0.04,5.68,0.18c0.63,0.07,0.98,0.14,0.84,0.63c-0.7,2.31-2.39,6.17-3.79,9.47L222.8,41.77h-0.21l-11.08-26.24 c1.82-4.21,3.16-7.86,4.56-10.88c0.35-0.7,0.77-0.84,1.4-0.91c1.75-0.14,3.57-0.18,5.25-0.18l0.01-0.17V2.83 c-2.95,0.07-4.14,0-7.16,0h-12.49c-3.02,0-6.72,0-9.68,0v0.72h0.35c1.82,0,3.58,0.04,5.33,0.18c0.63,0.07,1.19,0.35,1.54,0.91 l7.16,16.42l-8.91,20.7h-0.21L182.95,4.44c-0.07-0.35,0-0.63,0.63-0.7c1.75-0.14,3.52-0.18,5.47-0.18h0.14V2.83 c-3.1,0-7.02,0-10.03,0c-3.02,0-5.97,0-9.68,0v0.72h0.14c1.68,0,3.79,0.04,5.54,0.18c0.63,0.07,1.19,0.35,1.54,0.91l19.5,45.33 h0.21l11.86-27.58l11.86,27.58h0.21l12.91-29.96c2.88-6.67,4.91-11.23,6.81-15.37c0.35-0.7,0.7-0.84,1.33-0.91 c1.08-0.09,2.11-0.13,3.19-0.16c1.35,0.13,2.91,0.98,3.62,1.72c0.98,1.01,1.47,2.54,1.47,3.19v23.36c0,7.69,0,12.33,0,16.25 c0,0.51-0.28,1.1-0.91,1.1c-1.79,0-4.07,0-5.75,0h-0.14v0.76c3.11,0,11.85,0,14.73,0V49.2h-0.14c-1.68,0-3.98,0.06-5.75,0 c-0.64-0.02-0.91-0.59-0.91-1.1c0-4.23,0-8.56,0-16.25V9.06h0.21l33.74,42.52h0.21V20.82c0-7.69,0-11.97,0-16.25 c0-0.51,0.39-1.02,1.12-1.02c1.76,0,4,0,5.68,0V3.41V2.83C288.56,2.83,288.63,2.83,284.4,2.83z M206.88,4.44 c-0.07-0.35,0-0.7,0.63-0.77c0.91-0.07,2.1-0.14,3.37-0.14c1.26,0,1.96,0.07,2.88,0.14c0.63,0.07,0.98,0.21,0.84,0.7 c-0.63,2.53-1.89,6.1-3.51,9.89L206.88,4.44z"/> <path id="XMLID_2609_" d="M103.89,63.31v-7.78h2.86c1.37,0,2.25,0.68,2.61,1.54v4.72c-0.37,0.86-1.25,1.53-2.61,1.53H103.89z M105,56.4v6.03h1.56c0.84,0,1.46-0.38,1.69-0.95v-4.14c-0.23-0.57-0.85-0.95-1.69-0.95H105z"/> <path id="XMLID_2607_" d="M130.82,55.53v0.88h-3.47v2.46h3.22v0.88h-3.22v2.69h3.56v0.88h-4.67v-7.78H130.82z"/> <path id="XMLID_2605_" d="M148.5,55.53l1.96,4.34h0.19l1.92-4.34h1.58v7.78h-1.05v-6.25h-0.19l-1.97,4.38h-0.85l-1.97-4.38h-0.19 v6.25h-1.03v-7.78H148.5z"/> <path id="XMLID_2602_" d="M174.29,55.88c0.47,0.33,0.8,0.72,1,1.18v4.7c-0.2,0.46-0.53,0.85-1,1.19 c-0.47,0.34-1.07,0.51-1.81,0.51c-0.75,0-1.35-0.17-1.81-0.51c-0.47-0.34-0.8-0.73-1-1.19v-4.7c0.2-0.46,0.53-0.85,1-1.18 c0.47-0.34,1.07-0.51,1.81-0.51C173.23,55.37,173.83,55.54,174.29,55.88z M174.18,61.53v-4.24c-0.23-0.59-0.86-1.05-1.7-1.05 c-0.85,0-1.47,0.46-1.7,1.05v4.24c0.23,0.59,0.86,1.05,1.7,1.05C173.33,62.58,173.95,62.12,174.18,61.53z"/> <path id="XMLID_2600_" d="M197.23,61.83c-0.2,0.43-0.53,0.82-0.99,1.15c-0.46,0.32-1.05,0.49-1.79,0.49 c-0.75,0-1.35-0.17-1.81-0.51c-0.47-0.34-0.8-0.73-1-1.19v-4.7c0.2-0.46,0.53-0.85,1-1.18c0.47-0.34,1.07-0.51,1.81-0.51 c0.74,0,1.33,0.17,1.79,0.49c0.46,0.32,0.78,0.7,0.99,1.13v1.39h-1.08v-1.09c-0.23-0.59-0.86-1.05-1.7-1.05 c-0.83,0-1.45,0.46-1.7,1.05v4.24c0.23,0.59,0.86,1.05,1.7,1.05c0.84,0,1.45-0.46,1.7-1.05v-1.2h1.08V61.83z"/> <path id="XMLID_2597_" d="M218.99,62.63v0.68h-0.88l-1.99-3.14h-1.23v3.14h-1.11v-7.78h2.92c0.93,0,1.77,0.5,2.22,1.31v2.01 c-0.34,0.63-0.91,1.09-1.63,1.26L218.99,62.63z M214.89,59.3h1.57c0.62,0,1.13-0.29,1.41-0.79v-1.3c-0.27-0.52-0.8-0.8-1.41-0.8 h-1.57V59.3z"/> <path id="XMLID_2594_" d="M241.4,62.63v0.68h-0.98l-0.66-2.18h-2.95l-0.66,2.18h-0.88v-0.68l2.21-7.11h1.68L241.4,62.63z M239.51,60.25l-1.12-3.75h-0.19l-1.12,3.75H239.51z"/> <path id="XMLID_2592_" d="M263.09,61.83c-0.2,0.43-0.53,0.82-0.99,1.15c-0.46,0.32-1.04,0.49-1.79,0.49 c-0.75,0-1.35-0.17-1.81-0.51s-0.8-0.73-1-1.19v-4.7c0.2-0.46,0.53-0.85,1-1.18c0.47-0.34,1.07-0.51,1.81-0.51 c0.75,0,1.33,0.17,1.79,0.49c0.46,0.32,0.78,0.7,0.99,1.13v1.39h-1.08v-1.09c-0.23-0.59-0.86-1.05-1.7-1.05 c-0.83,0-1.45,0.46-1.7,1.05v4.24c0.23,0.59,0.86,1.05,1.7,1.05c0.84,0,1.45-0.46,1.7-1.05v-1.2h1.08V61.83z"/> <path id="XMLID_2590_" d="M279.51,56.2v-0.68h0.96l1.72,3.18h0.19l1.73-3.18h0.87v0.68l-2.2,3.8v3.3h-1.12V59.9L279.51,56.2z"/> <path id="XMLID_2588_" d="M108.36,67.4v0.86H105v2.52h3.18v0.86H105v3.55h-1.11V67.4H108.36z"/> <path id="XMLID_2585_" d="M126.22,67.75c0.47,0.33,0.8,0.72,1,1.18v4.7c-0.2,0.46-0.53,0.85-1,1.19 c-0.47,0.34-1.07,0.51-1.81,0.51s-1.35-0.17-1.81-0.51c-0.47-0.34-0.8-0.73-1-1.19v-4.7c0.2-0.46,0.53-0.85,1-1.18 c0.47-0.35,1.07-0.51,1.81-0.51S125.75,67.41,126.22,67.75z M126.11,73.4v-4.24c-0.23-0.59-0.86-1.05-1.7-1.05 c-0.85,0-1.47,0.46-1.7,1.05v4.24c0.23,0.59,0.86,1.05,1.7,1.05C125.25,74.45,125.87,73.99,126.11,73.4z"/> <path id="XMLID_2582_" d="M145.3,74.51v0.68h-0.88l-1.99-3.14h-1.23v3.14h-1.11V67.4h2.92c0.93,0,1.77,0.5,2.22,1.31v2.01 c-0.34,0.63-0.91,1.09-1.63,1.26L145.3,74.51z M141.2,71.17h1.57c0.62,0,1.13-0.29,1.41-0.79v-1.3c-0.27-0.52-0.8-0.8-1.41-0.8 h-1.57V71.17z"/> <path id="XMLID_2580_" d="M164.99,68.28V67.4h5.34v0.88h-2.11v6.91h-1.11v-6.91H164.99z"/> <path id="XMLID_2578_" d="M184.27,67.4v3.34h3.35V67.4h1.11v7.78h-1.11v-3.57h-3.35v3.57h-1.11V67.4H184.27z"/> <path id="XMLID_2576_" d="M206.47,67.4v0.88H203v2.46h3.22v0.88H203v2.69h3.56v0.88h-4.67V67.4H206.47z"/> <path id="XMLID_2572_" d="M232.79,74.39v0.68h-0.98l-0.66-2.18h-2.95l-0.66,2.18h-0.88v-0.68l2.21-7.11h1.68L232.79,74.39z M230.9,72.01l-1.12-3.75h-0.19l-1.12,3.75H230.9z"/> <path id="XMLID_2569_" d="M249.89,74.51v0.68h-0.88l-1.99-3.14h-1.23v3.14h-1.11V67.4h2.92c0.93,0,1.77,0.5,2.22,1.31v2.01 c-0.34,0.63-0.91,1.09-1.63,1.26L249.89,74.51z M245.78,71.17h1.57c0.62,0,1.13-0.29,1.41-0.79v-1.3c-0.27-0.52-0.8-0.8-1.41-0.8 h-1.57V71.17z"/> <path id="XMLID_2566_" d="M267.89,74.51v0.68h-0.98L266.26,73h-2.95l-0.66,2.18h-0.88v-0.68l2.21-7.11h1.68L267.89,74.51z M266,72.13l-1.12-3.75h-0.19l-1.12,3.75H266z"/> <path id="XMLID_2562_" d="M282.71,67.4c0.98,0,1.76,0.56,2.17,1.31v1.51c-0.21,0.36-0.62,0.72-1.02,0.91 c0.43,0.18,0.89,0.53,1.12,0.92v1.8c-0.4,0.74-1.17,1.32-2.27,1.32h-2.92V67.4H282.71z M283.85,69.08 c-0.27-0.49-0.78-0.8-1.37-0.8h-1.58v2.46h1.67c0.49,0,0.98-0.29,1.28-0.73V69.08z M283.95,72.35c-0.26-0.44-0.81-0.76-1.38-0.76 h-1.67v2.71h1.58c0.68,0,1.17-0.27,1.47-0.81V72.35z"/> <path id="XMLID_2560_" d="M103.89,79.43h1.03l1.21,6.37h0.19l1.6-6.37h1.16l1.6,6.37h0.19l1.2-6.37h1.03v0.68l-1.45,7.11h-1.6 l-1.5-5.83h-0.18l-1.49,5.83h-1.54l-1.47-7.11V79.43z"/> <path id="XMLID_2557_" d="M132.91,79.63c0.47,0.33,0.8,0.72,1,1.18v4.7c-0.2,0.46-0.53,0.85-1,1.19 c-0.47,0.34-1.07,0.51-1.81,0.51c-0.75,0-1.35-0.17-1.81-0.51c-0.47-0.34-0.8-0.73-1-1.19v-4.7c0.2-0.46,0.53-0.85,1-1.18 c0.47-0.35,1.07-0.51,1.81-0.51C131.84,79.12,132.45,79.28,132.91,79.63z M132.8,85.28v-4.24c-0.23-0.59-0.86-1.05-1.7-1.05 c-0.85,0-1.47,0.46-1.7,1.05v4.24c0.23,0.59,0.86,1.05,1.7,1.05C131.94,86.32,132.57,85.87,132.8,85.28z"/> <path id="XMLID_2554_" d="M156.31,86.53v0.68h-0.88l-1.99-3.14h-1.23v3.14h-1.11v-7.78h2.92c0.93,0,1.77,0.5,2.22,1.31v2.01 c-0.34,0.63-0.91,1.09-1.63,1.26L156.31,86.53z M152.21,83.2h1.57c0.62,0,1.13-0.29,1.41-0.79v-1.3c-0.27-0.52-0.8-0.8-1.41-0.8 h-1.57V83.2z"/> <path id="XMLID_2552_" d="M175.43,79.43v6.91h2.87v0.88h-3.98v-7.78H175.43z"/> <path id="XMLID_2549_" d="M196.17,87.21v-7.78h2.86c1.37,0,2.25,0.68,2.61,1.53v4.72c-0.37,0.86-1.25,1.53-2.61,1.53H196.17z M197.28,80.31v6.03h1.56c0.84,0,1.46-0.38,1.69-0.95v-4.14c-0.23-0.57-0.85-0.95-1.69-0.95H197.28z"/> <path id="XMLID_2547_" d="M231.32,79.43l3.1,6.05h0.19v-6.05h1.03v7.78h-1.4l-3.1-6.05h-0.19v6.05h-1.03v-7.78H231.32z"/> <path id="XMLID_2544_" d="M258.39,79.63c0.47,0.33,0.8,0.72,1,1.18v4.7c-0.2,0.46-0.53,0.85-1,1.19 c-0.47,0.34-1.07,0.51-1.81,0.51c-0.75,0-1.35-0.17-1.81-0.51c-0.47-0.34-0.8-0.73-1-1.19v-4.7c0.2-0.46,0.53-0.85,1-1.18 c0.47-0.35,1.07-0.51,1.81-0.51C257.32,79.12,257.92,79.28,258.39,79.63z M258.28,85.28v-4.24c-0.23-0.59-0.86-1.05-1.7-1.05 c-0.85,0-1.47,0.46-1.7,1.05v4.24c0.23,0.59,0.86,1.05,1.7,1.05C257.42,86.32,258.05,85.87,258.28,85.28z"/> <path id="XMLID_2542_" d="M275.76,79.27h1.03l1.21,6.37h0.19l1.6-6.37h1.16l1.6,6.37h0.19l1.2-6.37h1.03v0.68l-1.45,7.11h-1.6 l-1.5-5.83h-0.18l-1.49,5.83h-1.54l-1.47-7.11V79.27z"/> </g> </g> </svg>